<svg width="64" height="64" viewBox="0 0 64 64" fill="none" xmlns="http://www.w3.org/2000/svg">
<path d="M21.3332 45.333V39.9997H27.1332C26.9109 40.8886 26.7669 41.7775 26.7012 42.6663C26.6354 43.5552 26.6461 44.4441 26.7332 45.333H21.3332ZM21.3332 58.6663C17.6443 58.6663 14.5003 57.3659 11.9012 54.765C9.30206 52.1641 8.00162 49.0201 7.99984 45.333V13.333H2.6665V5.33301H39.9998V13.333H34.6665V29.3997C33.5998 30.0663 32.6221 30.8441 31.7332 31.733C30.8443 32.6219 30.0665 33.5997 29.3998 34.6663H21.3332V29.333H29.3332V13.333H13.3332V45.333C13.3332 47.5552 14.1109 49.4441 15.6665 50.9997C17.2221 52.5552 19.111 53.333 21.3332 53.333C22.6665 53.333 23.8781 53.0441 24.9678 52.4663C26.0576 51.8886 26.9794 51.0886 27.7332 50.0663C28.0887 50.9552 28.4887 51.7997 28.9332 52.5997C29.3776 53.3997 29.9109 54.1775 30.5332 54.933C29.3332 56.0886 27.9554 56.9997 26.3998 57.6663C24.8443 58.333 23.1554 58.6663 21.3332 58.6663ZM43.9998 50.6663C45.8665 50.6663 47.4443 50.0219 48.7332 48.733C50.0221 47.4441 50.6665 45.8663 50.6665 43.9997C50.6665 42.133 50.0221 40.5552 48.7332 39.2663C47.4443 37.9775 45.8665 37.333 43.9998 37.333C42.1332 37.333 40.5554 37.9775 39.2665 39.2663C37.9776 40.5552 37.3332 42.133 37.3332 43.9997C37.3332 45.8663 37.9776 47.4441 39.2665 48.733C40.5554 50.0219 42.1332 50.6663 43.9998 50.6663ZM57.5998 61.333L50.3998 54.133C49.4221 54.7552 48.3998 55.2219 47.3332 55.533C46.2665 55.8441 45.1554 55.9997 43.9998 55.9997C40.6665 55.9997 37.8336 54.8335 35.5012 52.501C33.1687 50.1686 32.0016 47.3348 31.9998 43.9997C31.9998 40.6663 33.1669 37.8335 35.5012 35.501C37.8354 33.1686 40.6683 32.0015 43.9998 31.9997C47.3332 31.9997 50.167 33.1668 52.5012 35.501C54.8354 37.8352 56.0016 40.6681 55.9998 43.9997C55.9998 45.1552 55.8443 46.2663 55.5332 47.333C55.2221 48.3997 54.7554 49.4219 54.1332 50.3997L61.3332 57.5997L57.5998 61.333Z" fill="#606E81"/>
</svg>
