<svg width="64" height="64" viewBox="0 0 64 64" fill="none" xmlns="http://www.w3.org/2000/svg">
<path fill-rule="evenodd" clip-rule="evenodd" d="M20.9022 5.20749C24.4206 3.75011 28.1917 3 32 3C35.8083 3 39.5794 3.75011 43.0978 5.20749C46.6163 6.66488 49.8132 8.801 52.5061 11.4939C55.199 14.1868 57.3351 17.3837 58.7925 20.9022C60.2499 24.4206 61 28.1917 61 32C61 35.8083 60.2499 39.5794 58.7925 43.0978C57.3351 46.6163 55.199 49.8132 52.5061 52.5061C49.8132 55.199 46.6163 57.3351 43.0978 58.7925C39.5794 60.2499 35.8083 61 32 61C28.1917 61 24.4206 60.2499 20.9022 58.7925C17.3837 57.3351 14.1868 55.199 11.4939 52.5061C8.801 49.8132 6.66488 46.6163 5.20749 43.0978C3.75011 39.5794 3 35.8083 3 32C3 28.1917 3.75011 24.4206 5.20749 20.9022C6.66488 17.3837 8.801 14.1868 11.4939 11.4939C14.1868 8.801 17.3837 6.66488 20.9022 5.20749ZM32 7.7177C28.8112 7.7177 25.6536 8.34578 22.7076 9.56608C19.7615 10.7864 17.0846 12.575 14.8298 14.8298C12.575 17.0846 10.7864 19.7615 9.56608 22.7076C8.34578 25.6536 7.7177 28.8112 7.7177 32C7.7177 35.1888 8.34578 38.3464 9.56608 41.2924C10.7864 44.2385 12.575 46.9154 14.8298 49.1702C17.0846 51.425 19.7615 53.2136 22.7076 54.4339C25.6536 55.6542 28.8112 56.2823 32 56.2823C35.1888 56.2823 38.3464 55.6542 41.2924 54.4339C44.2385 53.2136 46.9154 51.425 49.1702 49.1702C51.425 46.9154 53.2136 44.2385 54.4339 41.2924C55.6542 38.3464 56.2823 35.1888 56.2823 32C56.2823 28.8112 55.6542 25.6536 54.4339 22.7076C53.2136 19.7615 51.425 17.0846 49.1702 14.8298C46.9154 12.575 44.2385 10.7864 41.2924 9.56608C38.3464 8.34578 35.1888 7.7177 32 7.7177Z" fill="#606E81"/>
<path fill-rule="evenodd" clip-rule="evenodd" d="M36.5048 24.1936C37.547 23.4119 39.0255 23.6232 39.8072 24.6654L42.3603 28.0695L44.9134 24.6654C45.695 23.6232 47.1736 23.4119 48.2158 24.1936C49.258 24.9752 49.4692 26.4538 48.6875 27.496L45.3088 32.0009L48.6875 36.5059C49.4692 37.5481 49.258 39.0266 48.2158 39.8083C47.1736 40.5899 45.695 40.3787 44.9134 39.3365L42.3603 35.9323L39.8072 39.3365C39.0255 40.3787 37.547 40.5899 36.5048 39.8083C35.4626 39.0266 35.2513 37.5481 36.033 36.5059L39.4117 32.0009L36.033 27.496C35.2513 26.4538 35.4626 24.9752 36.5048 24.1936ZM17.1992 23.7218C18.5019 23.7218 19.558 24.7779 19.558 26.0807V32.0009C19.558 32.9455 19.9333 33.8513 20.6011 34.5192C21.269 35.1871 22.1749 35.5623 23.1194 35.5623C24.064 35.5623 24.9698 35.1871 25.6377 34.5192C26.3056 33.8513 26.6808 32.9455 26.6808 32.0009V26.0807C26.6808 24.7779 27.7369 23.7218 29.0397 23.7218C30.3425 23.7218 31.3985 24.7779 31.3985 26.0807V32.0009C31.3985 34.1967 30.5263 36.3025 28.9737 37.8551C27.421 39.4078 25.3152 40.28 23.1194 40.28C20.9237 40.28 18.8179 39.4078 17.2652 37.8551C15.7126 36.3025 14.8403 34.1967 14.8403 32.0009V26.0807C14.8403 24.7779 15.8964 23.7218 17.1992 23.7218Z" fill="#606E81"/>
</svg>
