<svg width="64" height="64" viewBox="0 0 64 64" fill="none" xmlns="http://www.w3.org/2000/svg">
<path d="M14.8668 5.53071C15.2063 5.69395 15.4928 5.94976 15.6933 6.26868C15.8938 6.5876 16.0002 6.95667 16.0002 7.33338C16.0002 9.54671 16.8322 10.8214 17.8748 12.3734L17.9522 12.4854C18.8375 13.8027 20.0002 15.528 20.0002 18C20.0002 20.5227 18.7282 22.7467 16.7895 24.0667C17.2988 24.4934 17.7495 25.0187 18.1388 25.648C19.4082 27.7014 20.0002 30.84 20.0002 35.3467C20.0002 39.912 19.3868 45.3947 18.3868 49.7734C17.8908 51.9494 17.2748 53.9574 16.5415 55.464C16.1953 56.2137 15.7367 56.9061 15.1815 57.5174C14.6322 58.08 13.7868 58.68 12.6668 58.68C11.5468 58.68 10.7015 58.08 10.1548 57.5174C9.59806 56.9074 9.13927 56.2147 8.79483 55.464C8.05883 53.9547 7.44283 51.9494 6.94683 49.7707C5.90669 45.0314 5.36596 40.1961 5.3335 35.344C5.3335 30.8374 5.9255 27.7014 7.19483 25.648C7.55696 25.052 8.01255 24.5181 8.54417 24.0667C7.55423 23.3946 6.744 22.4903 6.1843 21.4327C5.62461 20.3751 5.3325 19.1966 5.3335 18C5.3335 17.0187 5.3335 15.3307 6.35483 13.152C7.35483 11.0187 9.25617 8.56804 12.7495 5.77071C13.0439 5.5352 13.3989 5.38771 13.7735 5.34525C14.1482 5.30278 14.5272 5.36708 14.8668 5.53071ZM9.3335 17.9974C9.3335 18.8814 9.68469 19.7319 10.3098 20.3571C10.9349 20.9822 11.7828 21.3334 12.6668 21.3334C13.5509 21.3334 14.3987 20.9822 15.0239 20.3571C15.649 19.7319 16.0002 18.8841 16.0002 18C16.0002 16.8294 15.5068 16.0187 14.5548 14.6027L14.5228 14.5547C13.9122 13.648 13.1895 12.5734 12.6775 11.1947C11.2295 12.6667 10.4295 13.888 9.97883 14.848C9.3335 16.224 9.3335 17.2054 9.3335 17.9974ZM10.5975 27.7467C9.93617 28.8187 9.3335 31.016 9.3335 35.344C9.3335 39.6134 9.91483 44.7974 10.8455 48.88C11.3148 50.9334 11.8482 52.6 12.3895 53.7094C12.4882 53.9147 12.5815 54.0854 12.6668 54.2294C12.7522 54.0854 12.8455 53.9147 12.9442 53.7094C13.4855 52.6 14.0188 50.9307 14.4882 48.88C15.4215 44.8 16.0002 39.616 16.0002 35.344C16.0002 31.016 15.3975 28.8187 14.7362 27.7467C14.5367 27.3858 14.2352 27.0918 13.8695 26.9014C13.4908 26.7364 13.0795 26.6598 12.6668 26.6774C12.1335 26.6774 11.7522 26.76 11.4642 26.9014C11.0984 27.0918 10.7969 27.3858 10.5975 27.7467ZM26.6668 39.7814C25.2541 39.5444 23.8798 39.1174 22.5815 38.512C22.6595 36.9996 22.6818 35.4848 22.6482 33.9707C23.8508 34.7787 25.2082 35.3734 26.6668 35.704V28C26.6668 26.9392 27.0883 25.9218 27.8384 25.1716C28.5886 24.4215 29.606 24 30.6668 24H41.3335C41.3334 21.7619 40.7073 19.5684 39.5261 17.6673C38.3448 15.7663 36.6555 14.2335 34.6488 13.2421C32.6422 12.2507 30.3984 11.8403 28.1707 12.0572C25.9431 12.274 23.8205 13.1096 22.0428 14.4694C21.5095 12.9947 20.7495 11.8667 20.2215 11.0827L20.1148 10.9227C22.5107 9.23377 25.3245 8.23548 28.2492 8.03681C31.1738 7.83815 34.0967 8.44675 36.699 9.79618C39.3013 11.1456 41.4828 13.184 43.0055 15.6888C44.5282 18.1937 45.3335 21.0687 45.3335 24H54.6668C55.7277 24 56.7451 24.4215 57.4953 25.1716C58.2454 25.9218 58.6668 26.9392 58.6668 28V52C58.6668 53.0609 58.2454 54.0783 57.4953 54.8285C56.7451 55.5786 55.7277 56 54.6668 56H30.6668C29.606 56 28.5886 55.5786 27.8384 54.8285C27.0883 54.0783 26.6668 53.0609 26.6668 52V39.7814ZM30.6668 39.9494V52.0027H54.6668V28.0027H44.8268C43.996 31.2161 42.1871 34.0919 39.6503 36.2321C37.1135 38.3724 33.9742 39.6714 30.6668 39.9494ZM40.6508 28.0027H30.6668V35.9307C32.9074 35.6795 35.0319 34.8027 36.7975 33.4007C38.5632 31.9987 39.8985 30.128 40.6508 28.0027Z" fill="#606E81"/>
</svg>
