<svg width="20" height="21" viewBox="0 0 20 21" fill="none" xmlns="http://www.w3.org/2000/svg">
<g clip-path="url(#clip0_1212_502)">
<path fill-rule="evenodd" clip-rule="evenodd" d="M0 1.37793C0 0.825645 0.447715 0.37793 1 0.37793H19C19.5523 0.37793 20 0.825645 20 1.37793V19.3779C20 19.9302 19.5523 20.3779 19 20.3779H1C0.447715 20.3779 0 19.9302 0 19.3779V1.37793ZM7.53639 8.65775C7.28558 8.65775 7.03722 8.70628 6.8055 8.80056C6.57378 8.89484 6.36323 9.03303 6.18588 9.20724C6.00853 9.38145 5.86785 9.58826 5.77186 9.81588C5.67588 10.0435 5.62648 10.2874 5.62648 10.5338C5.62648 10.7802 5.67588 11.0241 5.77186 11.2518C5.86785 11.4794 6.00853 11.6862 6.18588 11.8604C6.36323 12.0346 6.57378 12.1728 6.8055 12.2671C7.03722 12.3614 7.28558 12.4099 7.53639 12.4099H8.4463C8.99859 12.4099 9.4463 11.9622 9.4463 11.4099V10.5716C9.44601 10.5464 9.44601 10.5212 9.4463 10.496V9.65775C9.4463 9.10547 8.99859 8.65775 8.4463 8.65775H7.53639ZM6.18562 4.36502C6.54387 4.01312 7.02975 3.81543 7.53639 3.81543H8.4463C8.99859 3.81543 9.4463 4.26315 9.4463 4.81543V6.56828C9.4463 7.12057 8.99859 7.56828 8.4463 7.56828H7.53639C7.02975 7.56828 6.54387 7.37059 6.18562 7.01869C5.82737 6.66679 5.62611 6.18952 5.62611 5.69186C5.62611 5.1942 5.82737 4.71692 6.18562 4.36502ZM13.792 4.37788C13.4418 4.02704 12.9655 3.8251 12.4653 3.81543H11.5554C11.0031 3.81543 10.5554 4.26315 10.5554 4.81543V6.56828C10.5554 7.12057 11.0031 7.56828 11.5554 7.56828H12.4653C12.9655 7.55862 13.4418 7.35668 13.792 7.00583C14.1422 6.65498 14.3384 6.18322 14.3384 5.69186C14.3384 5.20049 14.1422 4.72873 13.792 4.37788ZM12.4653 8.65703C11.964 8.65696 11.4828 8.85053 11.1254 9.19594C10.7681 9.54136 10.5634 10.0109 10.5554 10.5033V10.5636C10.5615 10.9333 10.6787 11.293 10.8923 11.5974C11.1058 11.9019 11.4062 12.1376 11.7557 12.275C12.1052 12.4123 12.4882 12.4451 12.8566 12.3693C13.225 12.2935 13.5624 12.1125 13.8264 11.8489C14.0905 11.5854 14.2693 11.2511 14.3405 10.888C14.4117 10.525 14.3721 10.1493 14.2267 9.80828C14.0813 9.46725 13.8365 9.17603 13.5231 8.9712C13.2098 8.76638 12.8418 8.65707 12.4653 8.65703ZM7.53639 13.4993C7.15847 13.4992 6.78899 13.6092 6.47469 13.8153C6.16039 14.0214 5.91538 14.3145 5.77065 14.6574C5.62593 15.0003 5.58798 15.3777 5.66162 15.7418C5.73526 16.1059 5.91718 16.4404 6.18436 16.703C6.45154 16.9655 6.79198 17.1443 7.16263 17.2168C7.53328 17.2893 7.91749 17.2522 8.26666 17.1101C8.61582 16.9681 8.91427 16.7276 9.12425 16.4189C9.33423 16.1103 9.4463 15.7474 9.4463 15.3761V14.4993C9.4463 13.9471 8.99859 13.4993 8.4463 13.4993H7.53639Z" fill="#606E81"/>
</g>
<defs>
<clipPath id="clip0_1212_502">
<rect width="20" height="20" fill="white" transform="translate(0 0.37793)"/>
</clipPath>
</defs>
</svg>
