<svg width="20" height="21" viewBox="0 0 20 21" fill="none" xmlns="http://www.w3.org/2000/svg">
<g clip-path="url(#clip0_1212_504)">
<path fill-rule="evenodd" clip-rule="evenodd" d="M20 3.37793C19.9999 3.31624 19.998 3.25475 19.9942 3.19354C19.994 3.19185 19.9954 3.19043 19.9971 3.19043C19.9987 3.19043 20 3.18912 20 3.1875V1.37793C20 0.825645 19.5523 0.37793 19 0.37793H1C0.447715 0.37793 0 0.825645 0 1.37793V3.1875C0 3.18912 0.00130957 3.19043 0.002925 3.19043C0.00461339 3.19043 0.00595104 3.19185 0.00584575 3.19354C0.00202097 3.25475 6.15942e-05 3.31624 0 3.37793V17.3779C6.1594e-05 17.4396 0.00202096 17.5011 0.00584571 17.5623C0.005951 17.564 0.00461336 17.5654 0.00292499 17.5654C0.00130956 17.5654 0 17.5667 0 17.5684V19.3779C0 19.9302 0.447715 20.3779 1 20.3779H19C19.5523 20.3779 20 19.9302 20 19.3779V17.5684C20 17.5667 19.9987 17.5654 19.9971 17.5654C19.9954 17.5654 19.994 17.564 19.9942 17.5623C19.998 17.5011 19.9999 17.4396 20 17.3779V3.37793ZM10.8796 10.8533C12.1463 8.55078 13.3416 6.37793 15 6.37793C15.2652 6.37793 15.5196 6.27257 15.7071 6.08504C15.8946 5.8975 16 5.64315 16 5.37793C16 5.11271 15.8946 4.85836 15.7071 4.67082C15.5196 4.48329 15.2652 4.37793 15 4.37793C12.159 4.37793 10.616 7.18293 9.124 9.89593L9.12037 9.90253C7.85372 12.2051 6.65842 14.3779 5 14.3779C4.73478 14.3779 4.48043 14.4833 4.29289 14.6708C4.10536 14.8584 4 15.1127 4 15.3779C4 15.6431 4.10536 15.8975 4.29289 16.085C4.48043 16.2726 4.73478 16.3779 5 16.3779C7.841 16.3779 9.384 13.5729 10.876 10.8599L10.8796 10.8533Z" fill="#606E81"/>
</g>
<defs>
<clipPath id="clip0_1212_504">
<rect width="20" height="20" fill="white" transform="translate(0 0.37793)"/>
</clipPath>
</defs>
</svg>
