<svg width="64" height="64" viewBox="0 0 64 64" fill="none" xmlns="http://www.w3.org/2000/svg">
<path d="M31.9971 7.33304C27.6685 7.32637 23.4151 8.46457 19.6684 10.6322C18.7123 11.1853 17.4888 10.8587 16.9357 9.90258C16.3825 8.94649 16.7092 7.72301 17.6653 7.16988C22.0222 4.64924 26.9682 3.32556 32.0017 3.33304C47.8336 3.33387 60.6668 16.1676 60.6668 31.9997C60.6668 47.8323 47.8327 60.6664 32.0002 60.6664C16.1676 60.6664 3.3335 47.8323 3.3335 31.9997C3.3335 26.783 4.72946 21.8811 7.17062 17.6643C7.72402 16.7084 8.94758 16.3821 9.90352 16.9355C10.8595 17.4889 11.1858 18.7125 10.6324 19.6684C8.53486 23.2916 7.3335 27.5044 7.3335 31.9997C7.3335 45.6231 18.3767 56.6664 32.0002 56.6664C45.6236 56.6664 56.6668 45.6231 56.6668 31.9997C56.6668 18.3763 45.6236 7.33304 32.0002 7.33304L31.9971 7.33304Z" fill="#606E81"/>
<path fill-rule="evenodd" clip-rule="evenodd" d="M26.8146 13.4809C28.1899 12.1056 30.0552 11.333 32.0001 11.333C33.945 11.333 35.8103 12.1056 37.1855 13.4809C38.5608 14.8562 39.3334 16.7214 39.3334 18.6663C39.3334 20.6113 38.5608 22.4765 37.1855 23.8518C35.8103 25.2271 33.945 25.9997 32.0001 25.9997C30.0552 25.9997 28.1899 25.2271 26.8146 23.8518C25.4394 22.4765 24.6667 20.6113 24.6667 18.6663C24.6667 16.7214 25.4394 14.8562 26.8146 13.4809ZM32.0001 15.333C31.116 15.333 30.2682 15.6842 29.6431 16.3093C29.0179 16.9344 28.6667 17.7823 28.6667 18.6663C28.6667 19.5504 29.0179 20.3982 29.6431 21.0234C30.2682 21.6485 31.116 21.9997 32.0001 21.9997C32.8841 21.9997 33.732 21.6485 34.3571 21.0234C34.9822 20.3982 35.3334 19.5504 35.3334 18.6663C35.3334 17.7823 34.9822 16.9344 34.3571 16.3093C33.732 15.6842 32.8841 15.333 32.0001 15.333Z" fill="#606E81"/>
<path d="M14.1589 25.8857C14.5901 24.8689 15.7638 24.3941 16.7806 24.8251L17.1674 24.984C17.4266 25.0887 17.8077 25.2399 18.2869 25.422C19.2465 25.7866 20.5931 26.273 22.1373 26.7587C25.279 27.747 29.0365 28.6665 32.0002 28.6665C34.9638 28.6665 38.7213 27.747 41.863 26.7587C43.4072 26.273 44.7538 25.7866 45.7134 25.422C46.1926 25.2399 46.5737 25.0887 46.8329 24.984C46.9624 24.9317 47.0614 24.891 47.1269 24.8639L47.1994 24.8336L47.2161 24.8266L47.2193 24.8253C48.2361 24.3943 49.4102 24.8689 49.8414 25.8857C50.2727 26.9026 49.7979 28.0765 48.781 28.5078L48.7705 28.5122L48.7464 28.5224L48.6584 28.559C48.5824 28.5905 48.4724 28.6358 48.3312 28.6928C48.0489 28.8068 47.6419 28.9682 47.1342 29.1611C46.12 29.5465 44.6982 30.0601 43.0633 30.5744C40.4263 31.4039 37.0995 32.2795 34.0002 32.5681V35.8709L34.0001 35.8728V35.9L34.0002 35.8795C34.0009 37.0278 34.3316 38.1526 34.9522 39.1188L41.6824 49.5848C42.2798 50.5138 42.011 51.7513 41.0819 52.3487C40.1528 52.9462 38.9154 52.6773 38.3179 51.7483L32.0002 41.9237L25.6824 51.7483C25.0849 52.6773 23.8475 52.9462 22.9184 52.3487C21.9893 51.7513 21.7205 50.5138 22.3179 49.5848L29.0482 39.1188C29.666 38.1568 29.9965 37.0376 30.0001 35.8945V32.5681C26.9008 32.2795 23.574 31.4039 20.937 30.5744C19.3022 30.0601 17.8803 29.5465 16.8661 29.1611C16.3584 28.9682 15.9514 28.8068 15.6691 28.6928C15.5279 28.6358 15.4179 28.5905 15.3419 28.559L15.2193 28.5078C14.2024 28.0765 13.7276 26.9026 14.1589 25.8857Z" fill="#606E81"/>
</svg>
