<svg width="64" height="64" viewBox="0 0 64 64" fill="none" xmlns="http://www.w3.org/2000/svg">
<path fill-rule="evenodd" clip-rule="evenodd" d="M24.842 41.1209C22.2208 38.9637 20.1652 36.2322 18.8171 33.1639C17.8188 30.8994 17.1999 28.43 17.0409 25.8363C17.0135 25.3927 16.9999 24.949 17 24.5058V24.5C17 12.6259 26.6259 3 38.5 3H38.5058C38.9602 2.99989 39.4148 3.01416 39.8688 3.04287C42.4347 3.20408 44.8785 3.81536 47.1221 4.79866C50.8812 6.44069 54.1098 9.13181 56.4056 12.5731C59.167 16.7123 60.4081 21.6808 59.9174 26.6323C59.4268 31.5838 57.2347 36.2121 53.7147 39.7289C51.7131 41.7273 49.3373 43.3116 46.7231 44.3915C44.1089 45.4713 41.3076 46.0254 38.4791 46.0222C33.5034 46.0148 28.6841 44.2827 24.842 41.1209ZM38.5 41C47.6127 41 55 33.6127 55 24.5C55 15.3873 47.6127 8 38.5 8C29.3873 8 22 15.3873 22 24.5C22 33.6127 29.3873 41 38.5 41Z" fill="#606E81"/>
<path d="M14.171 25.7817L14.1368 24.5679L13.3063 25.4538C10.1924 28.776 8.49328 33.1793 8.56842 37.7321C8.64356 42.2848 10.4871 46.6297 13.7089 49.8473L13.7098 49.8481C16.9398 53.0592 21.2879 54.8948 25.8419 54.9699C30.3959 55.0449 34.8021 53.3536 38.1362 50.2507L39.0236 49.4249L37.8121 49.3849C36.1381 49.3297 34.4739 49.1078 32.844 48.7225L32.6551 48.6778L32.4855 48.7724C30.0119 50.1511 27.1564 50.6864 24.3514 50.2971C21.5464 49.9079 18.9444 48.6151 16.9397 46.6149C14.9374 44.6195 13.6415 42.0248 13.2491 39.2254C12.8567 36.4259 13.3892 33.5749 14.7657 31.1059L14.8599 30.9368L14.8158 30.7484C14.4341 29.1188 14.2181 27.4547 14.171 25.7817Z" fill="#606E81"/>
<path d="M6.54625 42.2569L6.28 41.2303L5.65746 42.0889C3.95188 44.4414 3.16781 47.3375 3.45362 50.2292C3.73943 53.1208 5.07529 55.8074 7.20841 57.7804C9.34154 59.7535 12.1239 60.8762 15.029 60.9361C17.9341 60.996 20.7604 59.9889 22.973 58.1054L23.787 57.4124L22.7334 57.2318C21.1955 56.9682 19.6937 56.5258 18.2584 55.9136L18.0746 55.8352L17.8873 55.9051C16.5758 56.3949 15.1514 56.4985 13.7829 56.2036C12.4143 55.9086 11.159 55.2275 10.1657 54.241L10.1648 54.24C9.48086 53.5645 8.93885 52.7591 8.57055 51.8712C8.20243 50.9837 8.01527 50.0317 8.02003 49.0709C8.02751 48.395 8.12832 47.7233 8.3196 47.075L8.37759 46.8785L8.28096 46.6978C7.52894 45.2914 6.94662 43.8007 6.54625 42.2569Z" fill="#606E81"/>
</svg>
