<svg width="20" height="21" viewBox="0 0 20 21" fill="none" xmlns="http://www.w3.org/2000/svg">
<g clip-path="url(#clip0_1212_500)">
<path d="M1 0.37793C0.447716 0.37793 0 0.825645 0 1.37793V19.3779C0 19.9302 0.447715 20.3779 1 20.3779H19C19.5523 20.3779 20 19.9302 20 19.3779V1.37793C20 0.825645 19.5523 0.37793 19 0.37793H1ZM4.90478 4.30981C5.69695 4.31873 6.47728 4.86523 6.51123 5.81128C6.52817 6.65253 5.79505 7.2933 4.88403 7.31275H4.86207C4.07778 7.3037 3.31187 6.74348 3.27637 5.81128C3.28755 4.9794 3.98682 4.32955 4.90478 4.30981ZM13.4033 8.28443C14.2742 8.28983 15.0962 8.5482 15.7715 9.2366C16.4733 10.0193 16.6986 11.0984 16.7236 12.1956V16.1858C16.7236 16.7381 16.2759 17.1858 15.7236 17.1858H14.8477C14.2954 17.1858 13.8477 16.7381 13.8477 16.1858V12.5349C13.8413 11.6632 13.5427 10.6036 12.3889 10.5684C11.7127 10.5756 11.2359 10.9685 10.9094 11.6255C10.8203 11.837 10.8075 12.08 10.8032 12.3225V16.1858C10.8032 16.7381 10.3555 17.1858 9.80322 17.1858H8.933C8.37895 17.1858 7.93052 16.7353 7.93318 16.1813C7.94324 14.0849 7.95384 11.9886 7.94922 9.8921C7.94922 9.77376 7.94902 9.66204 7.94863 9.55695C7.94647 8.98158 8.41366 8.49683 8.98905 8.49683H10.5087C10.6713 8.49683 10.8032 8.62871 10.8032 8.79138C10.8032 9.07905 11.1923 9.20849 11.4025 9.01208C11.4893 8.93097 11.5816 8.85371 11.6809 8.78125C12.1733 8.42983 12.7648 8.29511 13.4033 8.28443ZM3.44605 9.49683C3.44605 8.94455 3.89377 8.49683 4.44605 8.49683H5.3208C5.87308 8.49683 6.3208 8.94455 6.3208 9.49683V16.1858C6.3208 16.7381 5.87309 17.1858 5.3208 17.1858H4.44605C3.89377 17.1858 3.44605 16.7381 3.44605 16.1858V9.49683Z" fill="#606E81"/>
</g>
<defs>
<clipPath id="clip0_1212_500">
<rect width="20" height="20" fill="white" transform="translate(0 0.37793)"/>
</clipPath>
</defs>
</svg>
