<svg width="20" height="21" viewBox="0 0 20 21" fill="none" xmlns="http://www.w3.org/2000/svg">
<g clip-path="url(#clip0_1212_498)">
<path d="M1 0.37793C0.447715 0.37793 0 0.825645 0 1.37793V19.3779C0 19.9302 0.447715 20.3779 1 20.3779H19C19.5523 20.3779 20 19.9302 20 19.3779V1.37793C20 0.825645 19.5523 0.37793 19 0.37793H1ZM3.1079 8.64219C3.10792 8.64217 3.10795 8.64216 3.10798 8.64216H8.19583C8.71632 8.64581 9.26343 8.84599 9.68265 9.23176C10.0685 9.61276 10.2952 10.1592 10.3064 10.7442C10.3045 11.1935 10.2189 11.7112 9.92067 12.1236C9.71644 12.3986 9.39895 12.6078 9.04748 12.7303C9.03461 12.7347 9.0259 12.7468 9.0259 12.7605C9.0259 12.775 9.03581 12.7877 9.0499 12.7914C9.42077 12.8887 9.78442 13.0897 10.0452 13.4176C10.3621 13.8273 10.4704 14.38 10.4797 14.9239C10.4759 15.5009 10.2762 16.1189 9.82912 16.5767C9.4317 16.9672 8.86113 17.1906 8.2605 17.2029H4.10783C3.55555 17.2029 3.10783 16.7552 3.10783 16.2029V8.64231C3.10783 8.64226 3.10786 8.64221 3.1079 8.64219ZM12.0239 9.36116C12.0239 8.97351 12.3382 8.65926 12.7258 8.65926H15.1062C15.4938 8.65926 15.8081 8.97351 15.8081 9.36116C15.8081 9.74881 15.4938 10.0631 15.1062 10.0631H12.7258C12.3382 10.0631 12.0239 9.74881 12.0239 9.36116ZM13.8354 10.483C13.8354 10.483 13.8355 10.483 13.8355 10.483C14.3635 10.483 14.8318 10.5516 15.2405 10.6893C15.6527 10.823 15.9997 11.032 16.2817 11.3155C16.5638 11.595 16.7767 11.9514 16.9214 12.3848C17.0187 12.6744 17.0758 13.0053 17.1079 13.3481C17.1592 13.8959 16.7003 14.3416 16.1501 14.3416H13.7453C13.193 14.3416 12.6792 14.8301 12.9571 15.3074C12.9756 15.3392 12.9953 15.3697 13.0163 15.3987C13.2007 15.6458 13.5025 15.7686 13.922 15.7686C14.3206 15.7668 14.7874 15.639 14.9413 15.1912C15.0091 14.9912 15.1723 14.8152 15.3835 14.8152H16.1381C16.693 14.8152 17.168 15.2836 16.9643 15.7997C16.8373 16.1214 16.6374 16.4204 16.3464 16.6744C15.7116 17.1907 14.8245 17.338 13.9709 17.3543C13.4429 17.3543 12.9657 17.2878 12.539 17.1541C12.1159 17.0164 11.7564 16.8053 11.4599 16.5218C11.1633 16.2382 10.9354 15.8818 10.7763 15.4525C10.6171 15.019 10.537 14.507 10.537 13.9156C10.537 13.3404 10.6147 12.8386 10.7702 12.4092C10.9257 11.9799 11.1461 11.6235 11.4318 11.3399C11.7211 11.0523 12.068 10.8372 12.473 10.6954C12.8817 10.5536 13.3363 10.483 13.8353 10.483C13.8353 10.483 13.8354 10.483 13.8354 10.483ZM6.28905 10.5196C5.88656 10.5196 5.56028 10.8459 5.56028 11.2484C5.56028 11.6508 5.88656 11.9771 6.28905 11.9771H7.24732C7.39938 11.976 7.54408 11.9063 7.65382 11.783C7.76038 11.6533 7.81262 11.4823 7.81617 11.3033V11.1812C7.81507 11.0197 7.75297 10.8528 7.64772 10.7137C7.55207 10.6007 7.40858 10.5278 7.24733 10.5196H6.28905ZM13.922 12.0626C13.5496 12.0626 13.2715 12.1619 13.0871 12.3604C12.7688 12.7098 13.1713 13.1685 13.644 13.1685H14.046C14.5256 13.1685 14.9739 12.7182 14.6544 12.3604C14.4809 12.1619 14.2366 12.0626 13.922 12.0626ZM6.29209 13.7459C5.88792 13.7459 5.56028 14.0736 5.56028 14.4777C5.56028 14.8819 5.88792 15.2095 6.29209 15.2095H7.42552C7.57587 15.2084 7.71982 15.1393 7.83202 15.0215C7.93807 14.8924 7.9929 14.7206 7.99558 14.5418V14.4136C7.99462 14.2506 7.94177 14.0806 7.83202 13.94C7.73568 13.8264 7.58653 13.7551 7.42552 13.7459H6.29209Z" fill="#606E81"/>
</g>
<defs>
<clipPath id="clip0_1212_498">
<rect width="20" height="20" fill="white" transform="translate(0 0.37793)"/>
</clipPath>
</defs>
</svg>
