<svg width="20" height="21" viewBox="0 0 20 21" fill="none" xmlns="http://www.w3.org/2000/svg">
<g clip-path="url(#clip0_1212_506)">
<path fill-rule="evenodd" clip-rule="evenodd" d="M0 20.3779H20V0.37793H0V20.3779ZM6.55714 6.32588C7.43375 6.32588 8.21259 6.62896 8.78612 7.08351C9.31647 7.50548 9.56487 7.92757 9.78156 8.30641L8.26714 9.06306C8.1588 8.81463 8.02844 8.55472 7.69366 8.27369C7.32545 7.98119 6.95804 7.89494 6.64348 7.89494C5.41018 7.89494 4.76089 9.04195 4.76089 10.3185C4.76089 11.9958 5.61629 12.8283 6.64348 12.8283C7.63509 12.8283 8.03665 12.1413 8.29577 11.6981L8.29884 11.6928L9.80357 12.461L9.7908 12.481C9.5134 12.9172 9.24201 13.3439 8.64509 13.7587C8.32089 13.9859 7.57469 14.43 6.51402 14.43C4.49045 14.43 2.85714 12.9587 2.85714 10.3721C2.85714 8.11159 4.39353 6.32588 6.55714 6.32588ZM12.5451 14.2027L9.92692 6.56369H11.9611L13.5406 11.9958L15.1087 6.56373H17.1429L14.492 14.2027H12.5451Z" fill="#606E81"/>
</g>
<defs>
<clipPath id="clip0_1212_506">
<rect width="20" height="20" fill="white" transform="translate(0 0.37793)"/>
</clipPath>
</defs>
</svg>
